<svg width="256" height="256" viewBox="0 0 256 256" fill="none" xmlns="http://www.w3.org/2000/svg">
<g opacity="0.5">
<path d="M245.312 114.567C242.729 114.567 240.424 116.304 238.836 119.054C237.31 121.698 234.621 123.46 231.568 123.46H209.089C208.61 114.769 206.753 106.451 203.75 98.6979L210.822 95.7683C212.016 95.2753 213.352 95.5274 214.374 96.3144C215.438 97.1323 216.62 97.4375 217.628 97.0202C219.511 96.2416 220.062 93.2588 218.864 90.3599C217.665 87.4611 215.164 85.7442 213.282 86.5228C212.273 86.9401 211.654 87.9932 211.478 89.3236C211.31 90.6036 210.545 91.7267 209.352 92.2225L202.28 95.1521C198.818 87.3323 194.166 80.1622 188.542 73.8744L204.439 57.9743C206.599 55.8148 209.744 55.1595 212.696 55.9493C215.763 56.7727 218.623 56.3694 220.449 54.5433C223.855 51.1375 222.365 44.1215 217.119 38.8756C211.873 33.6297 204.86 32.1397 201.451 35.5455C199.625 37.3716 199.224 40.2284 200.045 43.2981C200.835 46.2473 200.179 49.3954 198.02 51.5548L182.123 67.4522C175.835 61.8282 168.662 57.176 160.845 53.7142L163.775 46.6422C164.268 45.4491 165.393 44.6845 166.673 44.5164C168.004 44.34 169.057 43.721 169.474 42.7127C170.253 40.8306 168.536 38.3323 165.637 37.1307C162.738 35.9292 159.758 36.4837 158.977 38.3659C158.56 39.3742 158.865 40.5561 159.683 41.6232C160.47 42.6483 160.722 43.9843 160.229 45.1746L157.299 52.2466C149.547 49.247 141.228 47.3872 132.537 46.9083V24.4319C132.537 21.379 134.299 18.6902 136.943 17.1638C139.693 15.5758 141.43 13.2707 141.43 10.6884C141.433 5.86818 135.419 1.96387 128 1.96387C120.581 1.96387 114.567 5.86818 114.567 10.6884C114.567 13.2707 116.304 15.5758 119.054 17.1638C121.698 18.6902 123.46 21.379 123.46 24.4319V46.9111C114.769 47.39 106.451 49.247 98.698 52.2494L95.7684 45.1774C95.2754 43.9843 95.5275 42.6483 96.3145 41.626C97.1324 40.5617 97.4377 39.3798 97.0203 38.3687C96.2417 36.4865 93.2589 35.9348 90.36 37.1335C87.4612 38.3351 85.7443 40.8334 86.5229 42.7155C86.9403 43.7238 87.9934 44.3428 89.3237 44.5192C90.6037 44.6873 91.7268 45.4519 92.2226 46.645L95.1522 53.7171C87.3324 57.1788 80.1623 61.831 73.8745 67.455L57.9772 51.5576C55.8178 49.3982 55.1624 46.2529 55.9522 43.3009C56.7756 40.234 56.3723 37.3744 54.5462 35.5483C51.1404 32.1425 44.1244 33.6325 38.8785 38.8784C33.6326 44.1243 32.1426 51.1375 35.5484 54.5461C37.3745 56.3722 40.2313 56.7727 43.301 55.9521C46.2502 55.1623 49.3983 55.8177 51.5578 57.9771L67.4579 73.8772C61.8311 80.165 57.1818 87.3379 53.72 95.1549L46.648 92.2253C45.4548 91.7323 44.6902 90.6092 44.5221 89.3264C44.3457 87.996 43.7267 86.9429 42.7184 86.5256C40.8363 85.747 38.338 87.4639 37.1364 90.3627C35.9349 93.2616 36.4895 96.2416 38.3716 97.023C39.3799 97.4403 40.5618 97.1351 41.6261 96.3172C42.6512 95.5302 43.9872 95.2781 45.1775 95.7711L52.2496 98.7007C49.2499 106.453 47.3902 114.772 46.9112 123.463H24.432C21.3791 123.463 18.6904 121.701 17.1639 119.057C15.5759 116.307 13.2708 114.57 10.6885 114.57C5.8683 114.567 1.96399 120.581 1.96399 128C1.96399 135.419 5.8683 141.433 10.6885 141.433C13.2708 141.433 15.5759 139.696 17.1639 136.946C18.6904 134.302 21.3791 132.54 24.432 132.54H46.9112C47.3902 141.231 49.2471 149.549 52.2496 157.302L45.1775 160.231C43.9844 160.724 42.6484 160.472 41.6261 159.685C40.5618 158.867 39.3799 158.562 38.3716 158.98C36.4895 159.758 35.9377 162.741 37.1364 165.64C38.3352 168.539 40.8363 170.256 42.7184 169.477C43.7267 169.06 44.3457 168.007 44.5221 166.676C44.6902 165.396 45.4548 164.273 46.648 163.777L53.72 160.848C57.1818 168.667 61.8339 175.838 67.4579 182.125L51.5606 198.023C49.4011 200.182 46.2558 200.837 43.3038 200.048C40.2369 199.227 37.3773 199.628 35.5512 201.454C32.1454 204.859 33.6354 211.875 38.8813 217.121C44.1272 222.367 51.1404 223.857 54.549 220.451C56.3751 218.625 56.7757 215.769 55.955 212.699C55.1652 209.75 55.8206 206.602 57.98 204.442L73.8773 188.545C80.1651 194.172 87.338 198.821 95.155 202.283L92.2254 209.355C91.7324 210.548 90.6065 211.312 89.3265 211.481C87.9962 211.657 86.9431 212.276 86.5257 213.284C85.7471 215.166 87.464 217.665 90.3628 218.866C93.2617 220.068 96.2417 219.513 97.0231 217.631C97.4405 216.623 97.1352 215.441 96.3173 214.377C95.5303 213.351 95.2782 212.015 95.7712 210.825L98.7008 203.753C106.453 206.753 114.772 208.613 123.463 209.091V231.571C123.463 234.624 121.701 237.312 119.057 238.839C116.307 240.427 114.57 242.732 114.57 245.314C114.567 250.132 120.581 254.036 128 254.036C135.419 254.036 141.433 250.132 141.433 245.311C141.433 242.729 139.696 240.424 136.946 238.836C134.302 237.309 132.54 234.621 132.54 231.568V209.089C141.231 208.61 149.549 206.753 157.302 203.75L160.232 210.822C160.725 212.015 160.472 213.351 159.685 214.374C158.868 215.438 158.562 216.62 158.98 217.628C159.758 219.51 162.741 220.062 165.64 218.863C168.539 217.665 170.256 215.164 169.477 213.281C169.06 212.273 168.007 211.654 166.676 211.478C165.396 211.31 164.273 210.545 163.777 209.352L160.848 202.28C168.668 198.818 175.838 194.166 182.125 188.542L198.023 204.439C200.182 206.599 200.838 209.744 200.048 212.696C199.224 215.763 199.628 218.623 201.454 220.449C204.86 223.854 211.876 222.364 217.121 217.119C222.367 211.873 223.857 204.859 220.452 201.451C218.625 199.625 215.769 199.224 212.699 200.045C209.75 200.835 206.602 200.179 204.442 198.02L188.545 182.123C194.169 175.835 198.821 168.662 202.283 160.845L209.355 163.774C210.548 164.267 211.313 165.393 211.481 166.673C211.657 168.004 212.276 169.057 213.284 169.474C215.166 170.253 217.665 168.536 218.866 165.637C220.068 162.738 219.513 159.758 217.631 158.977C216.623 158.559 215.441 158.865 214.377 159.683C213.352 160.47 212.016 160.722 210.825 160.229L203.753 157.299C206.753 149.546 208.613 141.228 209.092 132.537H231.571C234.624 132.537 237.312 134.299 238.839 136.943C240.427 139.693 242.732 141.43 245.314 141.43C250.132 141.433 254.036 135.419 254.036 128C254.036 120.581 250.132 114.567 245.312 114.567Z" fill="#5DCE21"/>
<path d="M139.713 117.116C145.579 117.116 150.334 112.361 150.334 106.496C150.334 100.63 145.579 95.875 139.713 95.875C133.847 95.875 129.092 100.63 129.092 106.496C129.092 112.361 133.847 117.116 139.713 117.116Z" fill="#3A7F16"/>
<path d="M104.899 143.107C110.765 143.107 115.52 138.352 115.52 132.487C115.52 126.621 110.765 121.866 104.899 121.866C99.0334 121.866 94.2784 126.621 94.2784 132.487C94.2784 138.352 99.0334 143.107 104.899 143.107Z" fill="#3A7F16"/>
<path d="M127.193 75.5241C133.059 75.5241 137.814 72.8005 137.814 69.4408C137.814 66.081 133.059 63.3574 127.193 63.3574C121.328 63.3574 116.573 66.081 116.573 69.4408C116.573 72.8005 121.328 75.5241 127.193 75.5241Z" fill="#3A7F16"/>
<path d="M124.986 190.542C129.633 190.542 133.4 188.385 133.4 185.725C133.4 183.064 129.633 180.907 124.986 180.907C120.34 180.907 116.573 183.064 116.573 185.725C116.573 188.385 120.34 190.542 124.986 190.542Z" fill="#3A7F16"/>
<path d="M92.6446 173.063C94.8135 170.894 93.5021 166.066 89.7155 162.279C85.9288 158.493 81.1009 157.181 78.932 159.35C76.763 161.519 78.0744 166.347 81.861 170.134C85.6477 173.92 90.4756 175.232 92.6446 173.063Z" fill="#3A7F16"/>
<path d="M74.1682 121.493C75.5269 117.049 74.5658 112.816 72.0215 112.038C69.4772 111.26 66.3132 114.232 64.9545 118.676C63.5958 123.119 64.5569 127.352 67.1012 128.13C69.6455 128.908 72.8095 125.937 74.1682 121.493Z" fill="#3A7F16"/>
<path d="M173.429 141.439C176.09 141.439 178.246 137.672 178.246 133.025C178.246 128.378 176.09 124.611 173.429 124.611C170.768 124.611 168.612 128.378 168.612 133.025C168.612 137.672 170.768 141.439 173.429 141.439Z" fill="#3A7F16"/>
<path d="M170.073 93.3553C172.273 91.8587 171.937 87.5311 169.324 83.6892C166.71 79.8473 162.808 77.946 160.608 79.4426C158.408 80.9391 158.744 85.2668 161.358 89.1087C163.971 92.9506 167.874 94.8519 170.073 93.3553Z" fill="#3A7F16"/>
<path d="M194.159 154.144C195.301 151.416 195.146 148.752 193.812 148.193C192.478 147.634 190.47 149.393 189.328 152.121C188.185 154.849 188.34 157.513 189.674 158.072C191.009 158.631 193.016 156.872 194.159 154.144Z" fill="#3A7F16"/>
<path d="M192.886 110.327C194.166 109.653 194.087 106.986 192.709 104.368C191.332 101.751 189.177 100.176 187.898 100.85C186.618 101.523 186.697 104.191 188.075 106.808C189.452 109.425 191.607 111.001 192.886 110.327Z" fill="#3A7F16"/>
<path d="M93.0477 86.5399C95.8093 82.8026 96.3132 78.4911 94.1733 76.9099C92.0334 75.3287 88.06 77.0766 85.2985 80.814C82.5369 84.5513 82.033 88.8629 84.1729 90.444C86.3128 92.0252 90.2862 90.2773 93.0477 86.5399Z" fill="#3A7F16"/>
<path d="M141.309 162.713C147.175 162.713 151.93 157.958 151.93 152.092C151.93 146.227 147.175 141.472 141.309 141.472C135.444 141.472 130.689 146.227 130.689 152.092C130.689 157.958 135.444 162.713 141.309 162.713Z" fill="#3A7F16"/>
<path d="M167.572 181.124C170.49 178.206 171.501 174.485 169.83 172.814C168.158 171.143 164.438 172.153 161.52 175.072C158.601 177.99 157.591 181.71 159.262 183.382C160.933 185.053 164.654 184.042 167.572 181.124Z" fill="#3A7F16"/>
</g>
</svg>
